#!OML:ASF F:\VICON\USERDATA\INSTALL\rory3\rory3.ASF
:FULLY-SPECIFIED
:DEGREES
250
root 0.39847800526944327 17.674733576216017 63.22257960025942 -1.7661230231580318 -0.6080767178844679 -3.0527314979268643
lfemur -12.805208441771377 -2.7032734452461673 -17.401382130316076
ltibia 28.680610869097347
lfoot -0.18689928824643864 -1.4392271760675563
ltoes -5.8598759946766386
rfemur -18.36003121505524 1.0661766107211186 27.08437811606992
rtibia 41.71426843628533
rfoot -5.053555517487871 -12.006433407670709
rtoes 4.5926839107437205
lowerback 11.8015562571395 0.23464949258349926 2.373250492924054
upperback -0.2014058213181165 0.8571247147104907 2.348607891242861
thorax -6.310582275815211 0.3794878462977132 0.7961140550321274
lowerneck -16.294559372266708 -3.161954919879038 -3.333534859273342
upperneck 22.1596676938547 -3.9237765846344725 1.8264102642030777
head 9.693753198595674 -1.8729430794444981 0.7649133036037553
lclavicle -2.0255125104215822e-15 -7.111459797718595e-16
lhumerus -33.00982978813104 1.9285050609834147 80.48492819741112
lradius 27.623620204045846
lwrist 4.8305458531845495
lhand -28.54670959640787 20.33438292945512
lfingers 7.12502
lthumb -1.7473604234632218 50.763067768105714
rclavicle -2.0268240315288066e-15 -7.119676610090341e-16
rhumerus -30.220026855012886 -22.11066615308784 -75.28366113485316
rradius 20.652612049993547
rwrist 5.188263293465376
rhand -17.346860389499586 21.00349654253571
rfingers 7.12502
rthumb 8.384217350584237 -7.532418775982332
251
root 0.40172748392229696 17.682817433556167 63.242488531374015 -1.7573602860221054 -0.9189457067443902 -2.953654076393911
lfemur -12.854773355935405 -2.6709048371927047 -17.593905212319374
ltibia 28.785309684596516
lfoot 1.0291321667068711 -2.206195412624222
ltoes -6.098634133158161
rfemur -18.265709085921266 1.4699383326765065 27.0981599924279
rtibia 40.976723828047504
rfoot -5.199673641679721 -12.136696159309091
rtoes 4.5981843977523305
lowerback 11.890126477082296 0.3392433774212905 2.1740488072158075
upperback -0.0905608043169919 0.9791665221006898 2.336328009598541
thorax -6.3121627168756085 0.4482659553768993 0.7633210576056244
lowerneck -16.3193156646143 -3.1472901900646524 -3.3153929969363345
upperneck 22.158556634745324 -3.905960449426486 1.840317580891654
head 9.690354677412309 -1.8660971856410655 0.7748763398810152
lclavicle -2.0260470756541897e-15 -7.114867048614675e-16
lhumerus -32.953863878851024 1.892306187166473 80.34240271075197
lradius 27.476945605172514
lwrist 5.24890967675454
lhand -28.703884231659217 20.054882675948374
lfingers 7.12502
lthumb -1.9311971761117377 50.54811113042354
rclavicle -2.027264302939137e-15 -7.122487814743283e-16
rhumerus -29.823007022879658 -21.398185288413963 -75.6189716750151
rradius 20.891583632933905
rwrist 5.016680742223363
rhand -17.23743621167122 21.01412380749607
rfingers 7.12502
rthumb 8.438128376650143 -7.454915904578311
252
root 0.4000343242136979 17.708639623805585 63.15702532590646 -1.8281396987684826 -1.0509011386441256 -2.8720910884271134
lfemur -12.699577100541937 -2.777418628444605 -17.80273874775289
ltibia 28.803137907811852
lfoot 2.8656650320641717 -2.975977488952969
ltoes -5.943023836928353
rfemur -18.025182740349123 1.7379882726458933 27.090353468423128
rtibia 40.13995689398187
rfoot -5.313534758244605 -12.214159811297254
rtoes 3.9780165229816413
lowerback 12.01486014984681 0.3522105175925979 2.0455861241446507
upperback -0.021252636949184556 0.9882968827244405 2.3162506740352438
thorax -6.372859316400337 0.45847409884704743 0.7633264298459819
lowerneck -16.289779238326467 -3.1316441518054825 -3.30406006578822
upperneck 22.147752362877352 -3.8805366397430703 1.8111911129791671
head 9.678893217967465 -1.8604401239820034 0.7742117003838065
lclavicle -2.0261020186645397e-15 -7.115232891039169e-16
lhumerus -32.90451103035682 2.0636736637752717 80.15420417572633
lradius 27.341425343721276
lwrist 5.736187859594093
lhand -28.854840304062183 19.763661987390076
lfingers 7.12502
lthumb -2.0576526739989585 50.47529030480671
rclavicle -2.0278093174828457e-15 -7.125967943561045e-16
rhumerus -29.486873709806716 -20.804913391846327 -75.87770692004712
rradius 21.103023333736086
rwrist 4.93783226658531
rhand -17.147999142659092 20.971226569428016
rfingers 7.12502
rthumb 8.487106556348575 -7.454084985126606
253
root 0.40064653838962266 17.729383968404576 63.28813247787692 -1.8503778149793058 -1.100506756629959 -2.9022941756645944
lfemur -12.400675981823934 -2.856645270893913 -17.869146305942575
ltibia 28.418846834975607
lfoot 4.658047793688665 -3.8530944110682412
ltoes -5.775881015011217
rfemur -17.70514986107046 1.971690687212654 27.09136337397335
rtibia 39.20940378188086
rfoot -5.579787568258779 -12.172644202545651
rtoes 4.165504619661353
lowerback 12.07995288655625 0.330680278305448 2.042040377248888
upperback 0.03915151574050327 0.9744325520411785 2.3105831597389312
thorax -6.416558753024179 0.45306156222965366 0.7103513676439851
lowerneck -16.244530573111437 -3.113789165456628 -3.300853754241568
upperneck 22.174434347114826 -3.847729846236134 1.7724476193466967
head 9.68838826837181 -1.8527602918037718 0.7734658762535054
lclavicle -2.0263428572516658e-15 -7.116775409193885e-16
lhumerus -32.89376699137074 2.2171395519299875 80.01545359611332
lradius 27.400252059384282
lwrist 6.469574466716518
lhand -28.97769175450844 19.502219022521782
lfingers 7.12502
lthumb -2.174882671036518 50.26241702410175
rclavicle -2.027850949214057e-15 -7.126233516058437e-16
rhumerus -29.2036295568321 -20.345543721021087 -75.99056403478282
rradius 21.309341095938258
rwrist 4.87478393664189
rhand -17.08902113130882 20.936195563440812
rfingers 7.12502
rthumb 8.511505088648722 -7.43369478270426
254
root 0.4021593226392703 17.765620332259193 63.302546765454466 -1.6840141585915744 -1.0874309937422852 -3.1219598604322982
lfemur -12.092860711559002 -2.9039028562413187 -17.726738854595744
ltibia 27.589501904913966
lfoot 6.385358105147148 -4.810404626051246
ltoes -5.823983322417012
rfemur -17.225940922699166 2.374123403594166 27.203163276826228
rtibia 38.06276501078892
rfoot -5.780117361928191 -12.066823102037091
rtoes 3.5894877698773024
lowerback 12.02101460630723 0.30825372672588375 2.17084277719716
upperback 0.05808523565814594 0.9615319248489457 2.324529847776406
thorax -6.383466310927112 0.4490618827689951 0.609574245662954
lowerneck -16.247158379906974 -3.1037302865626577 -3.2935534099614285
upperneck 22.209620037356636 -3.8274295582283706 1.7590629358851815
head 9.70057059413694 -1.8475086785812054 0.7738187019048361
lclavicle -2.026877561793631e-15 -7.120194704606095e-16
lhumerus -32.96746181248901 2.340302654220178 79.87775885056364
lradius 27.640220990286608
lwrist 7.15121288785493
lhand -29.092474628847235 19.31811604625502
lfingers 7.12502
lthumb -2.3017480961736343 50.069598619344475
rclavicle -2.027396268604023e-15 -7.123330063829973e-16
rhumerus -28.97049651028468 -19.860379798691856 -76.1665676375117
rradius 21.535797937703084
rwrist 4.622658576230146
rhand -16.97146336052249 20.964406209554312
rfingers 7.12502
rthumb 8.57646299348313 -7.311916156010361
255
root 0.4060494611320953 17.783975018855134 63.24841685855118 -1.5174159792013995 -1.1034944182211484 -3.3164730050710194
lfemur -11.832662395366093 -2.954215072099792 -17.464243397792075
ltibia 26.839409870128616
lfoot 7.837140006711538 -5.715131203776615
ltoes -5.617073976416727
rfemur -16.692500066015135 2.8233668224451014 27.249843363268585
rtibia 36.93871837701377
rfoot -5.972661405560026 -11.926142261465209
rtoes 3.129907035829444
lowerback 11.99219817950745 0.293210505754515 2.306312860893472
upperback 0.059070045605255056 0.9971737941732677 2.330941430329391
thorax -6.3875656380317345 0.46423968937267884 0.4828238489545893
lowerneck -16.271216404794423 -3.1019883022696653 -3.287652948051738
upperneck 22.21297087866109 -3.8220239579787156 1.7686590671665114
head 9.701416933751528 -1.8452246980831033 0.7788065266026738
lclavicle -2.026812756366722e-15 -7.11978598363569e-16
lhumerus -32.98230069444454 2.3755146147267094 79.78669404590494
lradius 28.00662056184625
lwrist 7.695052804997302
lhand -29.13635858496107 19.24300772293519
lfingers 7.12502
lthumb -2.3378570850728266 49.90431130988859
rclavicle -2.027856938086794e-15 -7.126271859472916e-16
rhumerus -28.67458723090854 -19.42346451616791 -76.36364284892727
rradius 21.691989882875234
rwrist 4.571061120570008
rhand -16.875171097926525 20.967290066726566
rfingers 7.12502
rthumb 8.591796828052342 -7.331175782387079
